<?xml version="1.0" encoding="UTF-8"?>
<svg version="1.1" xmlns="http://www.w3.org/2000/svg" width="300" height="300">
<path d="M0 0 C1.43554714 -0.00571743 2.87108975 -0.01268693 4.30662537 -0.02079773 C8.17050178 -0.03859545 12.03414943 -0.03758597 15.89805436 -0.03185534 C19.14061223 -0.02874315 22.38312744 -0.03487851 25.62567919 -0.04089409 C33.28499482 -0.05489454 40.9441988 -0.05341628 48.60351562 -0.04199219 C56.46636777 -0.03052259 64.32887835 -0.0445773 72.1916855 -0.07138866 C78.97769256 -0.09364925 85.76359323 -0.10015966 92.54963416 -0.09431225 C96.58704961 -0.09096522 100.6242464 -0.09320532 104.66163063 -0.11056328 C108.46302213 -0.12619624 112.26391372 -0.12189916 116.06528664 -0.10325813 C118.0983728 -0.09790137 120.13148232 -0.11196195 122.16452026 -0.12695312 C135.26739743 -0.02375091 147.55100254 2.52639509 158.28979492 10.40405273 C158.98459961 10.90549805 159.6794043 11.40694336 160.39526367 11.92358398 C171.20713612 20.51870889 176.99123024 33.01560649 179.28979492 46.40405273 C179.3846221 48.44210039 179.4287969 50.48280458 179.43696594 52.52304077 C179.4476989 54.36877686 179.4476989 54.36877686 179.45864868 56.25180054 C179.46148866 57.6077268 179.46420042 58.96365333 179.46679688 60.31958008 C179.47306679 61.75409101 179.47971406 63.18860033 179.48670959 64.62310791 C179.50770209 69.32872396 179.51811239 74.03434013 179.52807617 78.73999023 C179.53212652 80.3657597 179.53624353 81.991529 179.54042625 83.61729813 C179.559473 91.26273802 179.5737011 98.90816833 179.58203822 106.55362737 C179.59178745 115.34670009 179.61804828 124.13951951 179.65853912 132.9325031 C179.68883417 139.74807063 179.70351999 146.56356615 179.70681924 153.37919962 C179.70915588 157.44022482 179.71793255 161.50097933 179.74328041 165.56193161 C179.76679975 169.3919148 179.77070028 173.22145371 179.76051903 177.05149078 C179.76002917 178.44490932 179.76618382 179.83835152 179.78007507 181.2317009 C179.93922822 198.1653394 175.92012766 212.84261932 164.26245117 225.52514648 C151.29072549 237.88039411 136.24357994 240.70910683 118.92016602 240.69458008 C117.48506321 240.70057494 116.04996361 240.70738267 114.61486816 240.7149353 C110.73846705 240.73250905 106.8621544 240.73728713 102.9857173 240.73856688 C100.5561492 240.7399944 98.12660315 240.7442754 95.69704056 240.74956131 C87.19881021 240.7680359 78.70064235 240.7762355 70.20239258 240.7746582 C62.31746377 240.7734588 54.43280956 240.79452817 46.54795015 240.82614553 C39.74927609 240.85242252 32.95069105 240.86302068 26.15196669 240.86174738 C22.10443102 240.86124092 18.05713946 240.86674671 14.009655 240.88810349 C10.19601313 240.90767874 6.38284332 240.9074811 2.56918335 240.89307022 C0.52889679 240.89003126 -1.51139082 240.90652408 -3.55160522 240.9239502 C-16.67098748 240.83610802 -28.95722792 238.29211591 -39.71020508 230.40405273 C-40.40500977 229.90260742 -41.09981445 229.40116211 -41.81567383 228.88452148 C-52.93817055 220.04245929 -58.70857829 207.21241974 -60.71020508 193.40405273 C-60.80088157 191.34659342 -60.84483599 189.28672796 -60.85064697 187.22727966 C-60.85635712 186.00935226 -60.86206726 184.79142487 -60.86795044 183.53659058 C-60.86919557 182.20001231 -60.87032072 180.86343393 -60.87133789 179.52685547 C-60.87597118 178.10865654 -60.88099652 176.69045884 -60.88638306 175.27226257 C-60.89946322 171.42889282 -60.90594388 167.5855405 -60.91039371 163.74215198 C-60.91333261 161.33557132 -60.91743902 158.92899535 -60.92189789 156.52241707 C-60.93556366 148.97736174 -60.94523381 141.43231721 -60.94909978 133.88725036 C-60.95357304 125.20684409 -60.97109067 116.52659586 -61.00010037 107.8462376 C-61.02179696 101.11815273 -61.03180836 94.39011205 -61.0331409 87.66199261 C-61.03418359 83.65251865 -61.03997565 79.64319344 -61.05796051 75.63375664 C-61.07457898 71.85552726 -61.07653085 68.07755622 -61.0678215 64.29930305 C-61.06669802 62.27292101 -61.08030996 60.246547 -61.09457397 58.22021484 C-61.01715449 41.01481854 -56.51135849 27.08424923 -44.71020508 14.40405273 C-32.06303858 2.77476684 -16.65471542 -0.05691895 0 0 Z " fill="#1B9BF6" transform="translate(90.710205078125,29.595947265625)"/>
<path d="M0 0 C5.97371803 3.22662048 10.72393503 6.76173985 14.49609375 12.42578125 C16.6467662 15.11858996 17.63349228 15.51532688 21.1171875 16.03515625 C23.71689645 16.13094901 26.31727657 16.20969504 28.91796875 16.2734375 C39.37118411 17.00681526 48.67733411 22.0420584 55.87109375 29.55078125 C58.92170825 33.67775516 61.57604368 37.96068111 63.87109375 42.55078125 C66.48037263 42.87084295 66.48037263 42.87084295 69.62109375 42.92578125 C82.30268427 43.76009642 92.16539898 47.25850483 100.8359375 56.6875 C102.66368425 58.90166256 104.29033612 61.15507344 105.87109375 63.55078125 C106.30679688 64.19144531 106.7425 64.83210938 107.19140625 65.4921875 C110.08881121 70.66901945 110.24785313 75.81107736 110.30859375 81.61328125 C110.31882568 82.36923584 110.32905762 83.12519043 110.33959961 83.90405273 C110.186349 93.75603091 105.93400498 102.08157889 99.37109375 109.30078125 C95.0505318 113.18928701 91.23949595 116.06180085 85.80859375 118.23828125 C84.78636719 118.65464844 83.76414063 119.07101563 82.7109375 119.5 C77.55719232 121.40695661 72.97236074 121.70419426 67.49755859 121.71191406 C66.65472321 121.71687897 65.81188782 121.72184387 64.94351196 121.72695923 C62.15634338 121.74155721 59.36923178 121.74838028 56.58203125 121.75390625 C54.63872273 121.75966133 52.69541422 121.76541902 50.75210571 121.7711792 C46.67506649 121.78168363 42.59804694 121.7875294 38.52099609 121.79101562 C33.31604373 121.79648748 28.11135465 121.82048988 22.9064846 121.84898758 C18.88969179 121.86768611 14.87296134 121.87282348 10.85612869 121.8743515 C8.93852938 121.87736423 7.02093079 121.88534573 5.10337448 121.89853668 C-8.5144263 121.98549799 -20.23682718 121.77037217 -31.12890625 112.55078125 C-38.87365632 104.530049 -41.60006454 95.60883405 -41.46484375 84.62890625 C-41.10928642 81.37100885 -40.27487772 78.61281701 -39.12890625 75.55078125 C-39.86238281 75.30199219 -40.59585938 75.05320312 -41.3515625 74.796875 C-50.06022242 70.88961408 -55.40331168 61.96178457 -59.12890625 53.55078125 C-62.62785427 44.16723884 -62.70471653 32.4603876 -59.06640625 23.11328125 C-53.29892944 11.1905981 -44.77840104 2.83551744 -32.29296875 -1.72265625 C-21.68881333 -5.28289616 -10.202411 -4.5216678 0 0 Z " fill="#E2F3FD" transform="translate(126.12890625,87.44921875)"/>
<path d="M0 0 C6.78939961 3.67144164 12.3589146 8.29044001 16.875 14.5546875 C16.875 15.2146875 16.875 15.8746875 16.875 16.5546875 C16.04097656 16.83441406 15.20695312 17.11414063 14.34765625 17.40234375 C6.76461671 20.1037473 0.76100875 23.03799694 -5.125 28.5546875 C-5.76179688 29.15023437 -6.39859375 29.74578125 -7.0546875 30.359375 C-13.10976942 36.62235673 -17.22835301 44.69336782 -17.375 53.4921875 C-17.5 55.65625 -17.5 55.65625 -18.125 57.5546875 C-20.86902757 59.7842099 -23.91550736 61.11234261 -27.125 62.5546875 C-32.55033018 65.96129017 -35.08485864 71.0803436 -38.125 76.5546875 C-49.59814252 70.81811624 -56.06969606 61.74845715 -60.5 49.8671875 C-62.97301423 37.18973561 -61.47782188 26.02888194 -54.55078125 15.0625 C-41.96275066 -2.36708081 -19.72665661 -8.72904555 0 0 Z " fill="#FDD201" transform="translate(126.125,87.4453125)"/>
<path d="M0 0 C1.8871875 0.0309375 1.8871875 0.0309375 3.8125 0.0625 C4.46245297 1.47728135 5.10728722 2.89441487 5.75 4.3125 C6.28947266 5.49585937 6.28947266 5.49585937 6.83984375 6.703125 C10.44251615 15.44213758 9.99687017 26.89802226 6.84765625 35.73046875 C1.29068713 48.24937655 -6.86640685 56.78218043 -19.5234375 62.03125 C-31.18361063 66.10665032 -41.84355042 64.2213293 -53.1875 60.0625 C-52.33316504 54.0610606 -49.36373973 50.32855134 -45.1875 46.0625 C-36.98341837 40.0625 -36.98341837 40.0625 -33.1875 40.0625 C-33.290625 38.825 -33.39375 37.5875 -33.5 36.3125 C-33.39769996 25.41754589 -27.51212661 17.12948334 -20.11328125 9.70703125 C-14.40321712 4.54586514 -7.94241572 -0.13020354 0 0 Z " fill="#FEFAE0" transform="translate(141.1875,104.9375)"/>
<path d="M0 0 C0 3 0 3 -1.53125 4.82421875 C-2.1809375 5.43910156 -2.830625 6.05398437 -3.5 6.6875 C-4.1496875 7.31011719 -4.799375 7.93273437 -5.46875 8.57421875 C-5.9740625 9.04472656 -6.479375 9.51523438 -7 10 C-7.66 9.34 -8.32 8.68 -9 8 C-6.03 5.36 -3.06 2.72 0 0 Z " fill="#F0CC0F" transform="translate(83,91)"/>
<path d="M0 0 C0.66 0 1.32 0 2 0 C3.5078125 1.75 3.5078125 1.75 5.125 4 C5.66382812 4.7425 6.20265625 5.485 6.7578125 6.25 C7.16773437 6.8275 7.57765625 7.405 8 8 C7.01 8 6.02 8 5 8 C0 2.65116279 0 2.65116279 0 0 Z " fill="#269BE0" transform="translate(71,150)"/>
</svg>
